<svg width="189" height="181" viewBox="0 0 189 181" fill="none" xmlns="http://www.w3.org/2000/svg">
<path fill-rule="evenodd" clip-rule="evenodd" d="M169 0C180.046 0 189 8.95432 189 20V80C189 91.0457 180.046 100 169 100H168.479L175.257 123.508L144.907 100H89C77.9543 100 69 91.0457 69 80V20C69 8.95432 77.9543 0 89 0H169ZM159 20H99C93.4772 20 89 24.4771 89 30V70C89 75.5228 93.4772 80 99 80H159C164.523 80 169 75.5228 169 70V30C169 24.4771 164.523 20 159 20Z" fill="#F4511E"/>
<path d="M20.5 57H55V77H30.5C24.9772 77 20.5 81.4771 20.5 87V127C20.5 132.523 24.9772 137 30.5 137H90.5C96.0228 137 100.5 132.523 100.5 127V112.5H120.5V137C120.5 148.046 111.546 157 100.5 157H44.5925L14.2427 180.508L21.0209 157H20.5C9.45435 157 0.5 148.046 0.5 137V77C0.5 65.9543 9.45435 57 20.5 57Z" fill="#F4511E"/>
</svg>
